<?xml version="1.0" encoding="utf-8"?>
<!-- Generator: Adobe Illustrator 16.0.4, SVG Export Plug-In . SVG Version: 6.00 Build 0)  -->
<!DOCTYPE svg PUBLIC "-//W3C//DTD SVG 1.1//EN" "http://www.w3.org/Graphics/SVG/1.1/DTD/svg11.dtd">
<svg version="1.1" id="Layer_1" xmlns="http://www.w3.org/2000/svg" xmlns:xlink="http://www.w3.org/1999/xlink" x="0px" y="0px"
	 width="56.693px" height="56.693px" viewBox="0 0 56.693 56.693" enable-background="new 0 0 56.693 56.693" xml:space="preserve">
<g>
	<g>
		<path d="M53.111,27.363c-0.449-0.5-11.244-12.274-24.765-12.274S4.03,26.863,3.582,27.363c-0.501,0.561-0.501,1.406,0,1.966
			c0.448,0.5,11.244,12.275,24.765,12.275s24.315-11.775,24.765-12.275C53.611,28.769,53.611,27.924,53.111,27.363z M28.346,38.657
			c-5.685,0-10.312-4.625-10.312-10.312c0-5.684,4.627-10.312,10.312-10.312s10.312,4.627,10.312,10.312
			C38.658,34.032,34.031,38.657,28.346,38.657z"/>
	</g>
</g>
<g>
	<g>
		<path d="M29.699,25.752c0-1.305,0.647-2.453,1.634-3.159c-0.885-0.452-1.871-0.732-2.932-0.732c-3.576,0-6.486,2.909-6.486,6.486
			c0,3.576,2.91,6.486,6.486,6.486c3.202,0,5.853-2.338,6.377-5.393C32.165,30.28,29.699,28.305,29.699,25.752z"/>
	</g>
</g>
</svg>
