<?xml version="1.0" encoding="utf-8"?>
<!-- Generator: Adobe Illustrator 16.0.0, SVG Export Plug-In . SVG Version: 6.00 Build 0)  -->
<!DOCTYPE svg PUBLIC "-//W3C//DTD SVG 1.1//EN" "http://www.w3.org/Graphics/SVG/1.1/DTD/svg11.dtd">
<svg version="1.1" id="圖層_1" xmlns="http://www.w3.org/2000/svg" xmlns:xlink="http://www.w3.org/1999/xlink" x="0px" y="0px"
	 width="28.35px" height="28.35px" viewBox="0 0 28.35 28.35" enable-background="new 0 0 28.35 28.35" xml:space="preserve">
<path fill-rule="evenodd" clip-rule="evenodd" fill="#FFFFFF" d="M5.117,2.098h18.115c1.66,0,3.02,1.359,3.02,3.02v18.112
	c0,1.661-1.359,3.022-3.02,3.022H5.117c-1.659,0-3.02-1.361-3.02-3.022V5.117C2.097,3.457,3.458,2.098,5.117,2.098L5.117,2.098z
	 M5.56,12.816c-0.294,0.292-0.294,0.772,0,1.066l6.572,6.57c0.294,0.294,0.773,0.294,1.068,0l9.589-9.588
	c0.293-0.298,0.293-0.774,0-1.069l-2.262-2.263c-0.297-0.296-0.775-0.296-1.07,0l-6.792,6.794l-3.773-3.775
	c-0.294-0.296-0.771-0.296-1.066,0L5.56,12.816z"/>
</svg>
